<svg xmlns="http://www.w3.org/2000/svg" width="256" height="256" viewBox="0 0 100 100"><rect width="100" height="100" rx="20" fill="#6d00b2"></rect><path d="M47.61 74.99Q43.20 74.99 39.87 73.52Q36.55 72.05 34.73 69.39Q32.91 66.73 32.91 63.30L32.91 63.30Q32.91 62.39 32.98 61.90L32.98 61.90L37.81 61.90Q37.67 64.14 38.61 66.20Q39.56 68.27 41.90 69.64Q44.25 71 47.96 71L47.96 71Q53.14 71 56.22 68.41Q59.30 65.82 59.30 61.41L59.30 61.41Q59.30 58.75 57.86 56.97Q56.43 55.18 54.33 54.02Q52.23 52.87 48.59 51.40L48.59 51.40Q44.32 49.72 41.80 48.28Q39.28 46.85 37.63 44.33Q35.99 41.81 36.27 37.89L36.27 37.89Q36.41 34.11 38.54 31.20Q40.68 28.30 44.35 26.65Q48.03 25.01 52.72 25.01L52.72 25.01Q57.34 25.01 60.66 26.58Q63.99 28.16 65.63 30.89Q67.28 33.62 67.07 36.91L67.07 36.91L61.96 36.91Q62.10 35.02 61.08 33.20Q60.07 31.38 57.86 30.22Q55.66 29.07 52.44 29.07L52.44 29.07Q47.47 29.07 44.32 31.48Q41.17 33.90 41.17 38.03L41.17 38.03Q41.17 40.48 42.57 42.16Q43.97 43.84 46.00 44.96Q48.03 46.08 51.60 47.55L51.60 47.55Q55.73 49.23 58.28 50.70Q60.84 52.17 62.62 54.62Q64.41 57.07 64.41 60.78L64.41 60.78Q64.41 61.69 64.34 62.18L64.34 62.18Q64.06 65.75 61.96 68.69Q59.86 71.63 56.18 73.31Q52.51 74.99 47.61 74.99L47.61 74.99Z" fill="#fff"></path></svg>